<svg width="13" height="13" viewBox="0 0 13 13" fill="none" xmlns="http://www.w3.org/2000/svg">
<path opacity="0.4" d="M6.3936 0.666016C6.95285 0.666016 7.39337 1.08842 7.6746 1.65839L8.61374 3.55222C8.64221 3.61083 8.70972 3.69337 8.81121 3.76887C8.91259 3.84429 9.01187 3.8859 9.07718 3.89687L10.7772 4.18166C11.3913 4.28485 11.906 4.58586 12.0731 5.11C12.24 5.63371 11.9954 6.17795 11.5538 6.62035L11.5534 6.62078L10.2327 7.95239C10.1804 8.00517 10.1217 8.1046 10.085 8.23412C10.0484 8.36277 10.0452 8.47995 10.0618 8.55567L10.062 8.55672L10.4398 10.204C10.5965 10.8896 10.5446 11.5695 10.0611 11.9249C9.57586 12.2816 8.9128 12.1235 8.31044 11.7647L6.71683 10.8135C6.64991 10.7736 6.53498 10.7412 6.39627 10.7412C6.25856 10.7412 6.14122 10.7731 6.06994 10.8146L6.06893 10.8152L4.47847 11.7645C3.87682 12.1245 3.21457 12.2798 2.72933 11.9228C2.24611 11.5673 2.19156 10.8887 2.34878 10.2037L2.72655 8.55672L2.72678 8.55567C2.74335 8.47995 2.7401 8.36277 2.70358 8.23412C2.6668 8.1046 2.60817 8.00517 2.55582 7.95239L1.23416 6.61981C0.795407 6.17743 0.551598 5.63366 0.717219 5.11072C0.883322 4.58626 1.39703 4.28488 2.01151 4.18162L3.71013 3.89708L3.71067 3.89699C3.77295 3.88618 3.87077 3.84504 3.97191 3.76943C4.07325 3.69367 4.14093 3.61095 4.16946 3.55222L4.1709 3.54929L5.10885 1.65789L5.10922 1.65714C5.39311 1.08765 5.835 0.666016 6.3936 0.666016Z" fill="#FFCC00"/>
<path d="M5.10922 1.65714C5.39311 1.08765 5.835 0.666016 6.3936 0.666016V10.7412C6.25705 10.7416 6.14076 10.7734 6.06994 10.8146L6.06893 10.8152L4.47847 11.7645C3.87682 12.1245 3.21457 12.2798 2.72933 11.9228C2.24611 11.5673 2.19156 10.8887 2.34878 10.2037L2.72655 8.55672L2.72678 8.55567C2.74335 8.47995 2.7401 8.36277 2.70358 8.23412C2.6668 8.1046 2.60817 8.00517 2.55582 7.95239L1.23416 6.61981C0.795407 6.17743 0.551598 5.63366 0.717219 5.11072C0.883322 4.58626 1.39703 4.28488 2.01151 4.18162L3.71013 3.89708L3.71067 3.89699C3.77295 3.88618 3.87077 3.84504 3.97191 3.76943C4.07325 3.69367 4.14093 3.61095 4.16946 3.55222L4.1709 3.54929L5.10885 1.65789L5.10922 1.65714Z" fill="#FFCC00"/>
</svg>
