<svg width="16" height="16" viewBox="0 0 16 16" fill="none" xmlns="http://www.w3.org/2000/svg">
<path fill-rule="evenodd" clip-rule="evenodd" d="M7.28633 2.51886C7.28625 2.51902 7.28641 2.5187 7.28633 2.51886L6.11438 4.88213C5.98997 5.13712 5.78187 5.35552 5.56757 5.51572C5.35282 5.67627 5.08556 5.81297 4.81013 5.86013L4.80836 5.86043L2.68218 6.2166C2.09093 6.31595 1.89666 6.55064 1.85112 6.69444C1.80497 6.84014 1.82998 7.14798 2.2544 7.57591L3.90755 9.24272C4.12205 9.45899 4.26534 9.74797 4.34433 10.0262C4.42342 10.3047 4.45287 10.6247 4.38726 10.9198L4.38653 10.9231L3.91324 12.9865C3.73661 13.7561 3.915 14.0398 4.00716 14.1077C4.09679 14.1736 4.41499 14.2603 5.08895 13.857L7.08579 12.6652C7.36339 12.5023 7.696 12.4352 8.00122 12.4352C8.30592 12.4352 8.63869 12.5022 8.9149 12.6671C8.91484 12.6671 8.91497 12.6672 8.9149 12.6671L10.9076 13.8565C10.9075 13.8564 10.9077 13.8566 10.9076 13.8565C11.5872 14.2611 11.9049 14.1747 11.9929 14.11C12.083 14.0438 12.2614 13.7617 12.0841 12.9861L11.6102 10.9198C11.5446 10.6247 11.574 10.3047 11.6531 10.0262C11.7321 9.74797 11.8754 9.45899 12.0899 9.24272L13.743 7.57591L13.7442 7.5747C14.1715 7.14689 14.1952 6.83987 14.1491 6.69534C14.1031 6.55115 13.907 6.31604 13.3153 6.2166L11.1891 5.86043C10.9108 5.81367 10.6415 5.67748 10.425 5.51642C10.2092 5.35589 10.0009 5.13727 9.87639 4.88213L8.70352 2.517C8.42202 1.94636 8.13651 1.83301 7.99789 1.83301C7.85839 1.83301 7.57108 1.9479 7.28633 2.51886ZM9.60018 2.07428C9.24841 1.36136 8.6974 0.833008 7.99789 0.833008C7.29918 0.833008 6.74646 1.36039 6.39137 2.07272L6.3909 2.07366L5.2177 4.43945L5.2159 4.44311C5.18022 4.51658 5.09556 4.62004 4.96881 4.7148C4.84229 4.80938 4.71994 4.86084 4.64204 4.87435C4.64182 4.87439 4.64159 4.87443 4.64137 4.87447L2.51671 5.23038C1.74811 5.35954 1.10555 5.7365 0.897787 6.39251C0.690626 7.04661 0.995586 7.72676 1.54439 8.2801L3.19754 9.94691C3.26301 10.0129 3.33636 10.1373 3.38235 10.2993C3.42804 10.4602 3.4321 10.6068 3.41138 10.7015C3.41128 10.7019 3.41118 10.7024 3.41109 10.7028L2.93856 12.7628C2.93856 12.7628 2.93857 12.7628 2.93856 12.7628C2.74192 13.6197 2.81015 14.4685 3.41456 14.9131C4.02152 15.3597 4.84986 15.1654 5.60241 14.7151L7.59179 13.5277C7.59221 13.5275 7.59263 13.5272 7.59305 13.527C7.6822 13.4751 7.82898 13.4352 8.00122 13.4352C8.17473 13.4352 8.31849 13.4757 8.40219 13.5257L10.3955 14.7154C11.1489 15.1642 11.9783 15.3619 12.5852 14.9158C13.19 14.4712 13.255 13.6208 13.059 12.7633L12.5864 10.7028C12.5863 10.7024 12.5862 10.7019 12.5861 10.7015C12.5653 10.6068 12.5694 10.4602 12.6151 10.2993C12.6611 10.1373 12.7344 10.0129 12.7999 9.94691L14.4518 8.28131C14.452 8.28113 14.4522 8.28095 14.4524 8.28077C15.0047 7.72741 15.3107 7.04667 15.1019 6.39161C14.8929 5.736 14.2491 5.3595 13.481 5.23042L11.3546 4.87421C11.2729 4.86048 11.1487 4.80844 11.0219 4.7141C10.8949 4.61966 10.8105 4.51643 10.7749 4.44311L9.60018 2.07428C9.60023 2.07439 9.60013 2.07418 9.60018 2.07428Z" fill="#F8F8F8"/>
</svg>
