<svg viewBox="570 172 680 680" xmlns="http://www.w3.org/2000/svg">
    <path d="M910.317 172.563c-187.07 0-339.532 152.462-339.532 339.532 0 186.975 152.462 339.532 339.532 339.532s339.721-152.652 339.721-339.532c0-187.07-152.557-339.532-339.721-339.532zm0 632.225c-161.185 0-292.504-131.698-292.504-292.693 0-161.375 131.319-292.314 292.504-292.314 161.28 0 292.693 130.939 292.693 292.314 0 160.996-131.318 292.693-292.693 292.693z" fill="#5FFFBA" />
    <path d="M823.087 497.683c7.206 13.464 17.067 29.772 25.221 45.701 8.344 16.213 20.575 38.684 20.575 38.684s35.935-74.714 61.724-113.493c65.801-98.702 127.052-122.121 127.052-122.121s-6.353 52.717-5.689 73.956c.759 24.273 10.809 52.243 10.809 52.243s-56.604 32.901-110.27 90.833c-33.849 36.598-79.36 108.468-79.36 108.468s-38.4-46.744-68.646-70.542c-33.564-26.453-73.671-47.881-73.671-47.881s33.28-21.807 50.157-32.711c16.972-10.809 42.098-23.135 42.098-23.135z" fill="#FFA28D" />
</svg>