<svg width="89" height="79" viewBox="0 0 89 79" fill="none" xmlns="http://www.w3.org/2000/svg">
<path d="M40.8103 2.12173L0.568938 71.8289C-1.05216 74.6579 0.982159 78.218 4.25614 78.218H84.7389C88.0129 78.218 90.0472 74.6897 88.4261 71.8289L48.1847 2.12173C46.5318 -0.707244 42.4632 -0.707244 40.8103 2.12173Z" fill="#FFB525"/>
<path d="M40.0469 52.4394C40.0511 53.6196 40.524 54.7498 41.3615 55.5814C41.7762 55.9931 42.268 56.3192 42.8087 56.5409C43.3494 56.7626 43.9284 56.8756 44.5128 56.8735C45.0972 56.8714 45.6755 56.7543 46.2146 56.5287C46.7537 56.3031 47.2431 55.9736 47.6549 55.5589C48.0666 55.1442 48.3926 54.6525 48.6144 54.1118C48.8361 53.571 48.9491 52.992 48.947 52.4076V23.2914C48.947 20.8438 46.9763 18.8413 44.4969 18.8413C42.0494 18.8413 40.0469 20.8121 40.0469 23.2914V52.4394ZM48.947 65.0903C48.947 66.2705 48.4782 67.4024 47.6436 68.237C46.8091 69.0715 45.6772 69.5404 44.4969 69.5404C43.3167 69.5404 42.1848 69.0715 41.3503 68.237C40.5157 67.4024 40.0469 66.2705 40.0469 65.0903C40.0469 63.91 40.5157 62.7782 41.3503 61.9436C42.1848 61.1091 43.3167 60.6402 44.4969 60.6402C45.6772 60.6402 46.8091 61.1091 47.6436 61.9436C48.4782 62.7782 48.947 63.91 48.947 65.0903Z" fill="white"/>
</svg>
